<svg id="Layer_1" data-name="Layer 1" xmlns="http://www.w3.org/2000/svg" viewBox="0 0 107 54"><defs><style>.cls-1{fill:#fff;opacity:0;}.cls-2{fill:#5fa800;}.cls-3{fill:#5fa800;}</style></defs><title>logo-1</title><rect class="cls-1" width="107" height="54"/><path class="cls-2" d="M23.5,21.69,15.28,44.86H8.22L0,21.69H6l5.74,17.49,5.78-17.49Z"/><path class="cls-2" d="M43.1,37H30.33a3.86,3.86,0,0,0,1.11,2.63,3.39,3.39,0,0,0,2.39.91,3,3,0,0,0,2.94-1.79h6A8.19,8.19,0,0,1,41.11,42a8.39,8.39,0,0,1-3,2.28,9.72,9.72,0,0,1-4.06.82A9.87,9.87,0,0,1,29.21,44a8.19,8.19,0,0,1-3.3-3.3,10.21,10.21,0,0,1-1.19-5,10.37,10.37,0,0,1,1.17-5,8.11,8.11,0,0,1,3.29-3.3A9.91,9.91,0,0,1,34,26.18a9.83,9.83,0,0,1,4.75,1.12A8.07,8.07,0,0,1,42,30.5a9.75,9.75,0,0,1,1.17,4.85A13.51,13.51,0,0,1,43.1,37Zm-5.67-3.13a2.9,2.9,0,0,0-1-2.31A3.67,3.67,0,0,0,34,30.7a3.58,3.58,0,0,0-2.39.83,3.69,3.69,0,0,0-1.21,2.34Z"/><path class="cls-2" d="M56.59,27a5.91,5.91,0,0,1,2.26,2.08V26.44h5.64V44.83a10.35,10.35,0,0,1-1,4.6,7.58,7.58,0,0,1-3.07,3.28,9.84,9.84,0,0,1-5.13,1.23A10.7,10.7,0,0,1,48.65,52a7.33,7.33,0,0,1-2.91-5.24h5.58a2.69,2.69,0,0,0,1.26,1.67,4.53,4.53,0,0,0,2.44.61,3.83,3.83,0,0,0,2.79-1,4.31,4.31,0,0,0,1-3.21V42.22a6.25,6.25,0,0,1-2.28,2.1,7,7,0,0,1-3.4.8A7.58,7.58,0,0,1,49,44a8.14,8.14,0,0,1-2.92-3.33,11.18,11.18,0,0,1-1.07-5,11.14,11.14,0,0,1,1.07-5A8,8,0,0,1,49,27.33a7.65,7.65,0,0,1,4.13-1.15A7.08,7.08,0,0,1,56.59,27Zm1.09,5.35a4,4,0,0,0-5.71,0,4.52,4.52,0,0,0-1.18,3.32A4.64,4.64,0,0,0,52,39a3.92,3.92,0,0,0,5.71,0,4.6,4.6,0,0,0,1.17-3.33A4.6,4.6,0,0,0,57.68,32.32Z"/><path class="cls-2" d="M68.58,26.44V44.86h5.65V26.44Z"/><path class="cls-2" d="M81.52,44.3a7.44,7.44,0,0,1-3-2.26,5.94,5.94,0,0,1-1.22-3.22h5.58a2.1,2.1,0,0,0,.89,1.55,3.12,3.12,0,0,0,2,.6,2.75,2.75,0,0,0,1.63-.42A1.27,1.27,0,0,0,88,39.48a1.24,1.24,0,0,0-.83-1.17,16.2,16.2,0,0,0-2.67-.84,25.47,25.47,0,0,1-3.3-1,5.77,5.77,0,0,1-2.28-1.61,4.42,4.42,0,0,1-1-3A5,5,0,0,1,78.8,29a5.82,5.82,0,0,1,2.57-2.06,9.82,9.82,0,0,1,4-.76,8.07,8.07,0,0,1,5.46,1.72,6.67,6.67,0,0,1,2.29,4.55H88a2.25,2.25,0,0,0-.85-1.52,2.92,2.92,0,0,0-1.86-.56,2.6,2.6,0,0,0-1.52.38,1.22,1.22,0,0,0-.53,1A1.27,1.27,0,0,0,84.05,33a13.39,13.39,0,0,0,2.62.79,28.8,28.8,0,0,1,3.33,1,5.72,5.72,0,0,1,2.26,1.65,4.66,4.66,0,0,1,1,3,4.82,4.82,0,0,1-.91,2.89,6,6,0,0,1-2.6,2,10.09,10.09,0,0,1-4,.72A10.56,10.56,0,0,1,81.52,44.3Z"/><path class="cls-2" d="M107,40.07v4.79h-2.87a7,7,0,0,1-4.79-1.5c-1.14-1-1.71-2.64-1.71-4.9V31.13H95.38V26.44h2.25V22h5.64v4.49H107v4.69h-3.7v7.39a1.53,1.53,0,0,0,.4,1.19,1.93,1.93,0,0,0,1.32.36Z"/><path class="cls-3" d="M92.82,4.33v.26a7.64,7.64,0,0,1-.52,2.79.87.87,0,0,0-.07.17l-.15.34a14.23,14.23,0,0,1-.7,1.34h0A18.08,18.08,0,0,1,82.66,17h0a17.88,17.88,0,0,1-5.34,1.32l-.71,0a29.94,29.94,0,0,1,5.14-7l.84-.84.11-.11a30.82,30.82,0,0,1,2.88-2.49c-.93.44-1.8.91-2.6,1.39-.41.25-.8.5-1.18.75s-.69.47-1,.71a22.5,22.5,0,0,0-6.6,7.54,19.18,19.18,0,0,0-1,2.3c-.07.19-.14.37-.19.54a17.06,17.06,0,0,0-.65,2.47c-.1.6-.12.94-.12.94H70.42s0-.2,0-.56a18.13,18.13,0,0,0-.54-2.58,20.55,20.55,0,0,0-2.12-4.92,21.5,21.5,0,0,0-7.88-7.63c-.3-.17-.6-.34-.92-.5,0,0,.66.63,1.57,1.62a43.5,43.5,0,0,1,2.87,3.47,26.47,26.47,0,0,1,4.25,8.09A15.49,15.49,0,0,1,52.34,6c0-.29,0-.58,0-.86A15.56,15.56,0,0,1,53.53.06,6.2,6.2,0,0,0,58,3.53a4.6,4.6,0,0,0,.84.1,0,0,0,0,0,0,0h.36a13.55,13.55,0,0,1,13,12.9,13.94,13.94,0,0,1,9.9-13.33l.19-.06L82.81,3a7.12,7.12,0,0,1,1.47-.15,6.23,6.23,0,0,1,1.15.1,7.84,7.84,0,0,0,1.29.1,7.89,7.89,0,0,0,1.89-.23A7.84,7.84,0,0,0,92,1.09,7.53,7.53,0,0,1,92.82,4.33Z"/></svg>
