<svg width="333" height="181" viewBox="0 0 333 181" fill="none" xmlns="http://www.w3.org/2000/svg">
<g opacity="0.5">
<path d="M3.37499 6.75C5.23895 6.75 6.74998 5.23897 6.74998 3.37501C6.74998 1.51105 5.23895 0 3.37499 0C1.51103 0 0 1.51105 0 3.37501C0 5.23897 1.51103 6.75 3.37499 6.75Z" fill="#00CB76" fill-opacity="0.28"/>
<path d="M6.74998 20.7422C6.74998 22.5703 5.27343 24.1172 3.37499 24.1172C1.54687 24.1172 0 22.6406 0 20.7422C0 18.9141 1.47655 17.3672 3.37499 17.3672C5.20312 17.3672 6.74998 18.9141 6.74998 20.7422Z" fill="#00CB76" fill-opacity="0.28"/>
<path d="M3.37499 41.4844C5.23895 41.4844 6.74998 39.9733 6.74998 38.1094C6.74998 36.2454 5.23895 34.7344 3.37499 34.7344C1.51103 34.7344 0 36.2454 0 38.1094C0 39.9733 1.51103 41.4844 3.37499 41.4844Z" fill="#00CB76" fill-opacity="0.28"/>
<path d="M3.37499 58.8516C5.23895 58.8516 6.74998 57.3405 6.74998 55.4766C6.74998 53.6126 5.23895 52.1016 3.37499 52.1016C1.51103 52.1016 0 53.6126 0 55.4766C0 57.3405 1.51103 58.8516 3.37499 58.8516Z" fill="#00CB76" fill-opacity="0.28"/>
<path d="M6.74998 72.9141C6.74998 74.7422 5.27343 76.2891 3.37499 76.2891C1.54687 76.2891 0 74.8125 0 72.9141C0 71.086 1.47655 69.5391 3.37499 69.5391C5.20312 69.5391 6.74998 71.0156 6.74998 72.9141Z" fill="#00CB76" fill-opacity="0.28"/>
<path d="M3.37499 93.6563C5.23895 93.6563 6.74998 92.1452 6.74998 90.2812C6.74998 88.4173 5.23895 86.9062 3.37499 86.9062C1.51103 86.9062 0 88.4173 0 90.2812C0 92.1452 1.51103 93.6563 3.37499 93.6563Z" fill="#00CB76" fill-opacity="0.28"/>
<path d="M3.37499 111.023C5.23895 111.023 6.74998 109.512 6.74998 107.648C6.74998 105.784 5.23895 104.273 3.37499 104.273C1.51103 104.273 0 105.784 0 107.648C0 109.512 1.51103 111.023 3.37499 111.023Z" fill="#00CB76" fill-opacity="0.28"/>
<path d="M6.74998 125.016C6.74998 126.844 5.27343 128.391 3.37499 128.391C1.54687 128.391 0 126.914 0 125.016C0 123.188 1.47655 121.641 3.37499 121.641C5.20312 121.641 6.74998 123.117 6.74998 125.016Z" fill="#00CB76" fill-opacity="0.28"/>
<path d="M3.37499 145.758C5.23895 145.758 6.74998 144.247 6.74998 142.383C6.74998 140.519 5.23895 139.008 3.37499 139.008C1.51103 139.008 0 140.519 0 142.383C0 144.247 1.51103 145.758 3.37499 145.758Z" fill="#00CB76" fill-opacity="0.28"/>
<path d="M3.37499 163.125C5.23895 163.125 6.74998 161.614 6.74998 159.75C6.74998 157.886 5.23895 156.375 3.37499 156.375C1.51103 156.375 0 157.886 0 159.75C0 161.614 1.51103 163.125 3.37499 163.125Z" fill="#00CB76" fill-opacity="0.28"/>
<path d="M6.74998 177.117C6.74998 178.945 5.27343 180.492 3.37499 180.492C1.54687 180.492 0 179.016 0 177.117C0 175.289 1.47655 173.742 3.37499 173.742C5.20312 173.742 6.74998 175.289 6.74998 177.117Z" fill="#00CB76" fill-opacity="0.28"/>
<path d="M21.4453 6.75C23.3093 6.75 24.8203 5.23897 24.8203 3.37501C24.8203 1.51105 23.3093 0 21.4453 0C19.5814 0 18.0703 1.51105 18.0703 3.37501C18.0703 5.23897 19.5814 6.75 21.4453 6.75Z" fill="#00CB76" fill-opacity="0.28"/>
<path d="M24.8203 20.7422C24.8203 22.5703 23.3438 24.1172 21.4453 24.1172C19.5469 24.1172 18.0703 22.6406 18.0703 20.7422C18.0703 18.9141 19.5469 17.3672 21.4453 17.3672C23.3438 17.3672 24.8203 18.9141 24.8203 20.7422Z" fill="#00CB76" fill-opacity="0.28"/>
<path d="M21.4453 41.4844C23.3093 41.4844 24.8203 39.9733 24.8203 38.1094C24.8203 36.2454 23.3093 34.7344 21.4453 34.7344C19.5814 34.7344 18.0703 36.2454 18.0703 38.1094C18.0703 39.9733 19.5814 41.4844 21.4453 41.4844Z" fill="#00CB76" fill-opacity="0.28"/>
<path d="M21.4453 58.8516C23.3093 58.8516 24.8203 57.3405 24.8203 55.4766C24.8203 53.6126 23.3093 52.1016 21.4453 52.1016C19.5814 52.1016 18.0703 53.6126 18.0703 55.4766C18.0703 57.3405 19.5814 58.8516 21.4453 58.8516Z" fill="#00CB76" fill-opacity="0.28"/>
<path d="M24.8203 72.9141C24.8203 74.7422 23.3438 76.2891 21.4453 76.2891C19.5469 76.2891 18.0703 74.8125 18.0703 72.9141C18.0703 71.086 19.5469 69.5391 21.4453 69.5391C23.3438 69.5391 24.8203 71.0156 24.8203 72.9141Z" fill="#00CB76" fill-opacity="0.28"/>
<path d="M21.4453 93.6563C23.3093 93.6563 24.8203 92.1452 24.8203 90.2812C24.8203 88.4173 23.3093 86.9062 21.4453 86.9062C19.5814 86.9062 18.0703 88.4173 18.0703 90.2812C18.0703 92.1452 19.5814 93.6563 21.4453 93.6563Z" fill="#00CB76" fill-opacity="0.28"/>
<path d="M21.4453 111.023C23.3093 111.023 24.8203 109.512 24.8203 107.648C24.8203 105.784 23.3093 104.273 21.4453 104.273C19.5814 104.273 18.0703 105.784 18.0703 107.648C18.0703 109.512 19.5814 111.023 21.4453 111.023Z" fill="#00CB76" fill-opacity="0.28"/>
<path d="M24.8203 125.016C24.8203 126.844 23.3438 128.391 21.4453 128.391C19.5469 128.391 18.0703 126.914 18.0703 125.016C18.0703 123.188 19.5469 121.641 21.4453 121.641C23.3438 121.641 24.8203 123.117 24.8203 125.016Z" fill="#00CB76" fill-opacity="0.28"/>
<path d="M21.4453 145.758C23.3093 145.758 24.8203 144.247 24.8203 142.383C24.8203 140.519 23.3093 139.008 21.4453 139.008C19.5814 139.008 18.0703 140.519 18.0703 142.383C18.0703 144.247 19.5814 145.758 21.4453 145.758Z" fill="#00CB76" fill-opacity="0.28"/>
<path d="M21.4453 163.125C23.3093 163.125 24.8203 161.614 24.8203 159.75C24.8203 157.886 23.3093 156.375 21.4453 156.375C19.5814 156.375 18.0703 157.886 18.0703 159.75C18.0703 161.614 19.5814 163.125 21.4453 163.125Z" fill="#00CB76" fill-opacity="0.28"/>
<path d="M24.8203 177.117C24.8203 178.945 23.3438 180.492 21.4453 180.492C19.5469 180.492 18.0703 179.016 18.0703 177.117C18.0703 175.289 19.5469 173.742 21.4453 173.742C23.3438 173.742 24.8203 175.289 24.8203 177.117Z" fill="#00CB76" fill-opacity="0.28"/>
<path d="M42.8907 3.37501C42.8907 5.20314 41.4141 6.75 39.5156 6.75C37.6875 6.75 36.1406 5.27345 36.1406 3.37501C36.1406 1.54689 37.6172 0 39.5156 0C41.4141 0 42.8907 1.54689 42.8907 3.37501Z" fill="#00CB76" fill-opacity="0.28"/>
<path d="M42.8907 20.7422C42.8907 22.5703 41.4141 24.1172 39.5156 24.1172C37.6875 24.1172 36.1406 22.6406 36.1406 20.7422C36.1406 18.9141 37.6172 17.3672 39.5156 17.3672C41.4141 17.3672 42.8907 18.9141 42.8907 20.7422Z" fill="#00CB76" fill-opacity="0.28"/>
<path d="M42.8907 38.1094C42.8907 39.9375 41.4141 41.4844 39.5156 41.4844C37.6875 41.4844 36.1406 40.0078 36.1406 38.1094C36.1406 36.2813 37.6172 34.7344 39.5156 34.7344C41.4141 34.7344 42.8907 36.2813 42.8907 38.1094Z" fill="#00CB76" fill-opacity="0.28"/>
<path d="M42.8907 55.4766C42.8907 57.3047 41.4141 58.8516 39.5156 58.8516C37.6875 58.8516 36.1406 57.375 36.1406 55.4766C36.1406 53.6484 37.6172 52.1016 39.5156 52.1016C41.4141 52.1016 42.8907 53.6484 42.8907 55.4766Z" fill="#00CB76" fill-opacity="0.28"/>
<path d="M42.8907 72.9141C42.8907 74.7422 41.4141 76.2891 39.5156 76.2891C37.6875 76.2891 36.1406 74.8125 36.1406 72.9141C36.1406 71.086 37.6172 69.5391 39.5156 69.5391C41.4141 69.5391 42.8907 71.0156 42.8907 72.9141Z" fill="#00CB76" fill-opacity="0.28"/>
<path d="M42.8907 90.2812C42.8907 92.1094 41.4141 93.6563 39.5156 93.6563C37.6875 93.6563 36.1406 92.1797 36.1406 90.2812C36.1406 88.4531 37.6172 86.9062 39.5156 86.9062C41.4141 86.9062 42.8907 88.3828 42.8907 90.2812Z" fill="#00CB76" fill-opacity="0.28"/>
<path d="M42.8907 107.648C42.8907 109.477 41.4141 111.023 39.5156 111.023C37.6875 111.023 36.1406 109.547 36.1406 107.648C36.1406 105.82 37.6172 104.273 39.5156 104.273C41.4141 104.273 42.8907 105.75 42.8907 107.648Z" fill="#00CB76" fill-opacity="0.28"/>
<path d="M42.8907 125.016C42.8907 126.844 41.4141 128.391 39.5156 128.391C37.6875 128.391 36.1406 126.914 36.1406 125.016C36.1406 123.188 37.6172 121.641 39.5156 121.641C41.4141 121.641 42.8907 123.117 42.8907 125.016Z" fill="#00CB76" fill-opacity="0.28"/>
<path d="M42.8907 142.383C42.8907 144.211 41.4141 145.758 39.5156 145.758C37.6875 145.758 36.1406 144.281 36.1406 142.383C36.1406 140.555 37.6172 139.008 39.5156 139.008C41.4141 139.008 42.8907 140.555 42.8907 142.383Z" fill="#00CB76" fill-opacity="0.28"/>
<path d="M42.8907 159.75C42.8907 161.578 41.4141 163.125 39.5156 163.125C37.6875 163.125 36.1406 161.648 36.1406 159.75C36.1406 157.922 37.6172 156.375 39.5156 156.375C41.4141 156.375 42.8907 157.922 42.8907 159.75Z" fill="#00CB76" fill-opacity="0.28"/>
<path d="M42.8907 177.117C42.8907 178.945 41.4141 180.492 39.5156 180.492C37.6875 180.492 36.1406 179.016 36.1406 177.117C36.1406 175.289 37.6172 173.742 39.5156 173.742C41.4141 173.742 42.8907 175.289 42.8907 177.117Z" fill="#00CB76" fill-opacity="0.28"/>
<path d="M57.586 6.75C59.4499 6.75 60.9609 5.23897 60.9609 3.37501C60.9609 1.51105 59.4499 0 57.586 0C55.722 0 54.2109 1.51105 54.2109 3.37501C54.2109 5.23897 55.722 6.75 57.586 6.75Z" fill="#00CB76" fill-opacity="0.28"/>
<path d="M60.9609 20.7422C60.9609 22.5703 59.4844 24.1172 57.586 24.1172C55.7578 24.1172 54.2109 22.6406 54.2109 20.7422C54.2109 18.9141 55.6875 17.3672 57.586 17.3672C59.4844 17.3672 60.9609 18.9141 60.9609 20.7422Z" fill="#00CB76" fill-opacity="0.28"/>
<path d="M57.586 41.4844C59.4499 41.4844 60.9609 39.9733 60.9609 38.1094C60.9609 36.2454 59.4499 34.7344 57.586 34.7344C55.722 34.7344 54.2109 36.2454 54.2109 38.1094C54.2109 39.9733 55.722 41.4844 57.586 41.4844Z" fill="#00CB76" fill-opacity="0.28"/>
<path d="M57.586 58.8516C59.4499 58.8516 60.9609 57.3405 60.9609 55.4766C60.9609 53.6126 59.4499 52.1016 57.586 52.1016C55.722 52.1016 54.2109 53.6126 54.2109 55.4766C54.2109 57.3405 55.722 58.8516 57.586 58.8516Z" fill="#00CB76" fill-opacity="0.28"/>
<path d="M60.9609 72.9141C60.9609 74.7422 59.4844 76.2891 57.586 76.2891C55.7578 76.2891 54.2109 74.8125 54.2109 72.9141C54.2109 71.086 55.6875 69.5391 57.586 69.5391C59.4844 69.5391 60.9609 71.0156 60.9609 72.9141Z" fill="#00CB76" fill-opacity="0.28"/>
<path d="M57.586 93.6563C59.4499 93.6563 60.9609 92.1452 60.9609 90.2812C60.9609 88.4173 59.4499 86.9062 57.586 86.9062C55.722 86.9062 54.2109 88.4173 54.2109 90.2812C54.2109 92.1452 55.722 93.6563 57.586 93.6563Z" fill="#00CB76" fill-opacity="0.28"/>
<path d="M57.586 111.023C59.4499 111.023 60.9609 109.512 60.9609 107.648C60.9609 105.784 59.4499 104.273 57.586 104.273C55.722 104.273 54.2109 105.784 54.2109 107.648C54.2109 109.512 55.722 111.023 57.586 111.023Z" fill="#00CB76" fill-opacity="0.28"/>
<path d="M60.9609 125.016C60.9609 126.844 59.4844 128.391 57.586 128.391C55.7578 128.391 54.2109 126.914 54.2109 125.016C54.2109 123.188 55.6875 121.641 57.586 121.641C59.4844 121.641 60.9609 123.117 60.9609 125.016Z" fill="#00CB76" fill-opacity="0.28"/>
<path d="M57.586 145.758C59.4499 145.758 60.9609 144.247 60.9609 142.383C60.9609 140.519 59.4499 139.008 57.586 139.008C55.722 139.008 54.2109 140.519 54.2109 142.383C54.2109 144.247 55.722 145.758 57.586 145.758Z" fill="#00CB76" fill-opacity="0.28"/>
<path d="M57.586 163.125C59.4499 163.125 60.9609 161.614 60.9609 159.75C60.9609 157.886 59.4499 156.375 57.586 156.375C55.722 156.375 54.2109 157.886 54.2109 159.75C54.2109 161.614 55.722 163.125 57.586 163.125Z" fill="#00CB76" fill-opacity="0.28"/>
<path d="M60.9609 177.117C60.9609 178.945 59.4844 180.492 57.586 180.492C55.7578 180.492 54.2109 179.016 54.2109 177.117C54.2109 175.289 55.6875 173.742 57.586 173.742C59.4844 173.742 60.9609 175.289 60.9609 177.117Z" fill="#00CB76" fill-opacity="0.28"/>
<path d="M75.7265 6.75C77.5905 6.75 79.1015 5.23897 79.1015 3.37501C79.1015 1.51105 77.5905 0 75.7265 0C73.8626 0 72.3516 1.51105 72.3516 3.37501C72.3516 5.23897 73.8626 6.75 75.7265 6.75Z" fill="#00CB76" fill-opacity="0.28"/>
<path d="M79.1015 20.7422C79.1015 22.5703 77.6249 24.1172 75.7265 24.1172C73.8281 24.1172 72.3516 22.6406 72.3516 20.7422C72.3516 18.9141 73.8281 17.3672 75.7265 17.3672C77.6249 17.3672 79.1015 18.9141 79.1015 20.7422Z" fill="#00CB76" fill-opacity="0.28"/>
<path d="M75.7265 41.4844C77.5905 41.4844 79.1015 39.9733 79.1015 38.1094C79.1015 36.2454 77.5905 34.7344 75.7265 34.7344C73.8626 34.7344 72.3516 36.2454 72.3516 38.1094C72.3516 39.9733 73.8626 41.4844 75.7265 41.4844Z" fill="#00CB76" fill-opacity="0.28"/>
<path d="M75.7265 58.8516C77.5905 58.8516 79.1015 57.3405 79.1015 55.4766C79.1015 53.6126 77.5905 52.1016 75.7265 52.1016C73.8626 52.1016 72.3516 53.6126 72.3516 55.4766C72.3516 57.3405 73.8626 58.8516 75.7265 58.8516Z" fill="#00CB76" fill-opacity="0.28"/>
<path d="M79.1015 72.9141C79.1015 74.7422 77.6249 76.2891 75.7265 76.2891C73.8281 76.2891 72.3516 74.8125 72.3516 72.9141C72.3516 71.086 73.8281 69.5391 75.7265 69.5391C77.6249 69.5391 79.1015 71.0156 79.1015 72.9141Z" fill="#00CB76" fill-opacity="0.28"/>
<path d="M75.7265 93.6563C77.5905 93.6563 79.1015 92.1452 79.1015 90.2812C79.1015 88.4173 77.5905 86.9062 75.7265 86.9062C73.8626 86.9062 72.3516 88.4173 72.3516 90.2812C72.3516 92.1452 73.8626 93.6563 75.7265 93.6563Z" fill="#00CB76" fill-opacity="0.28"/>
<path d="M75.7265 111.023C77.5905 111.023 79.1015 109.512 79.1015 107.648C79.1015 105.784 77.5905 104.273 75.7265 104.273C73.8626 104.273 72.3516 105.784 72.3516 107.648C72.3516 109.512 73.8626 111.023 75.7265 111.023Z" fill="#00CB76" fill-opacity="0.28"/>
<path d="M79.1015 125.016C79.1015 126.844 77.6249 128.391 75.7265 128.391C73.8281 128.391 72.3516 126.914 72.3516 125.016C72.3516 123.188 73.8281 121.641 75.7265 121.641C77.6249 121.641 79.1015 123.117 79.1015 125.016Z" fill="#00CB76" fill-opacity="0.28"/>
<path d="M75.7265 145.758C77.5905 145.758 79.1015 144.247 79.1015 142.383C79.1015 140.519 77.5905 139.008 75.7265 139.008C73.8626 139.008 72.3516 140.519 72.3516 142.383C72.3516 144.247 73.8626 145.758 75.7265 145.758Z" fill="#00CB76" fill-opacity="0.28"/>
<path d="M75.7265 163.125C77.5905 163.125 79.1015 161.614 79.1015 159.75C79.1015 157.886 77.5905 156.375 75.7265 156.375C73.8626 156.375 72.3516 157.886 72.3516 159.75C72.3516 161.614 73.8626 163.125 75.7265 163.125Z" fill="#00CB76" fill-opacity="0.28"/>
<path d="M79.1015 177.117C79.1015 178.945 77.6249 180.492 75.7265 180.492C73.8281 180.492 72.3516 179.016 72.3516 177.117C72.3516 175.289 73.8281 173.742 75.7265 173.742C77.6249 173.742 79.1015 175.289 79.1015 177.117Z" fill="#00CB76" fill-opacity="0.28"/>
<path d="M97.1719 3.37501C97.1719 5.20314 95.6953 6.75 93.7969 6.75C91.8985 6.75 90.4219 5.27345 90.4219 3.37501C90.4219 1.54689 91.8985 0 93.7969 0C95.6953 0 97.1719 1.54689 97.1719 3.37501Z" fill="#00CB76" fill-opacity="0.28"/>
<path d="M97.1719 20.7422C97.1719 22.5703 95.6953 24.1172 93.7969 24.1172C91.8985 24.1172 90.4219 22.6406 90.4219 20.7422C90.4219 18.9141 91.8985 17.3672 93.7969 17.3672C95.6953 17.3672 97.1719 18.9141 97.1719 20.7422Z" fill="#00CB76" fill-opacity="0.28"/>
<path d="M97.1719 38.1094C97.1719 39.9375 95.6953 41.4844 93.7969 41.4844C91.8985 41.4844 90.4219 40.0078 90.4219 38.1094C90.4219 36.2813 91.8985 34.7344 93.7969 34.7344C95.6953 34.7344 97.1719 36.2813 97.1719 38.1094Z" fill="#00CB76" fill-opacity="0.28"/>
<path d="M97.1719 55.4766C97.1719 57.3047 95.6953 58.8516 93.7969 58.8516C91.8985 58.8516 90.4219 57.375 90.4219 55.4766C90.4219 53.6484 91.8985 52.1016 93.7969 52.1016C95.6953 52.1016 97.1719 53.6484 97.1719 55.4766Z" fill="#00CB76" fill-opacity="0.28"/>
<path d="M97.1719 72.9141C97.1719 74.7422 95.6953 76.2891 93.7969 76.2891C91.8985 76.2891 90.4219 74.8125 90.4219 72.9141C90.4219 71.086 91.8985 69.5391 93.7969 69.5391C95.6953 69.5391 97.1719 71.0156 97.1719 72.9141Z" fill="#00CB76" fill-opacity="0.28"/>
<path d="M97.1719 90.2812C97.1719 92.1094 95.6953 93.6563 93.7969 93.6563C91.8985 93.6563 90.4219 92.1797 90.4219 90.2812C90.4219 88.4531 91.8985 86.9062 93.7969 86.9062C95.6953 86.9062 97.1719 88.3828 97.1719 90.2812Z" fill="#00CB76" fill-opacity="0.28"/>
<path d="M97.1719 107.648C97.1719 109.477 95.6953 111.023 93.7969 111.023C91.8985 111.023 90.4219 109.547 90.4219 107.648C90.4219 105.82 91.8985 104.273 93.7969 104.273C95.6953 104.273 97.1719 105.75 97.1719 107.648Z" fill="#00CB76" fill-opacity="0.28"/>
<path d="M97.1719 125.016C97.1719 126.844 95.6953 128.391 93.7969 128.391C91.8985 128.391 90.4219 126.914 90.4219 125.016C90.4219 123.188 91.8985 121.641 93.7969 121.641C95.6953 121.641 97.1719 123.117 97.1719 125.016Z" fill="#00CB76" fill-opacity="0.28"/>
<path d="M97.1719 142.383C97.1719 144.211 95.6953 145.758 93.7969 145.758C91.8985 145.758 90.4219 144.281 90.4219 142.383C90.4219 140.555 91.8985 139.008 93.7969 139.008C95.6953 139.008 97.1719 140.555 97.1719 142.383Z" fill="#00CB76" fill-opacity="0.28"/>
<path d="M97.1719 159.75C97.1719 161.578 95.6953 163.125 93.7969 163.125C91.8985 163.125 90.4219 161.648 90.4219 159.75C90.4219 157.922 91.8985 156.375 93.7969 156.375C95.6953 156.375 97.1719 157.922 97.1719 159.75Z" fill="#00CB76" fill-opacity="0.28"/>
<path d="M97.1719 177.117C97.1719 178.945 95.6953 180.492 93.7969 180.492C91.8985 180.492 90.4219 179.016 90.4219 177.117C90.4219 175.289 91.8985 173.742 93.7969 173.742C95.6953 173.742 97.1719 175.289 97.1719 177.117Z" fill="#00CB76" fill-opacity="0.28"/>
<path d="M111.867 6.75C113.731 6.75 115.242 5.23897 115.242 3.37501C115.242 1.51105 113.731 0 111.867 0C110.003 0 108.492 1.51105 108.492 3.37501C108.492 5.23897 110.003 6.75 111.867 6.75Z" fill="#00CB76" fill-opacity="0.28"/>
<path d="M115.242 20.7422C115.242 22.5703 113.766 24.1172 111.867 24.1172C110.039 24.1172 108.492 22.6406 108.492 20.7422C108.492 18.9141 109.969 17.3672 111.867 17.3672C113.766 17.3672 115.242 18.9141 115.242 20.7422Z" fill="#00CB76" fill-opacity="0.28"/>
<path d="M111.867 41.4844C113.731 41.4844 115.242 39.9733 115.242 38.1094C115.242 36.2454 113.731 34.7344 111.867 34.7344C110.003 34.7344 108.492 36.2454 108.492 38.1094C108.492 39.9733 110.003 41.4844 111.867 41.4844Z" fill="#00CB76" fill-opacity="0.28"/>
<path d="M111.867 58.8516C113.731 58.8516 115.242 57.3405 115.242 55.4766C115.242 53.6126 113.731 52.1016 111.867 52.1016C110.003 52.1016 108.492 53.6126 108.492 55.4766C108.492 57.3405 110.003 58.8516 111.867 58.8516Z" fill="#00CB76" fill-opacity="0.28"/>
<path d="M115.242 72.9141C115.242 74.7422 113.766 76.2891 111.867 76.2891C110.039 76.2891 108.492 74.8125 108.492 72.9141C108.492 71.086 109.969 69.5391 111.867 69.5391C113.766 69.5391 115.242 71.0156 115.242 72.9141Z" fill="#00CB76" fill-opacity="0.28"/>
<path d="M111.867 93.6563C113.731 93.6563 115.242 92.1452 115.242 90.2812C115.242 88.4173 113.731 86.9062 111.867 86.9062C110.003 86.9062 108.492 88.4173 108.492 90.2812C108.492 92.1452 110.003 93.6563 111.867 93.6563Z" fill="#00CB76" fill-opacity="0.28"/>
<path d="M111.867 111.023C113.731 111.023 115.242 109.512 115.242 107.648C115.242 105.784 113.731 104.273 111.867 104.273C110.003 104.273 108.492 105.784 108.492 107.648C108.492 109.512 110.003 111.023 111.867 111.023Z" fill="#00CB76" fill-opacity="0.28"/>
<path d="M115.242 125.016C115.242 126.844 113.766 128.391 111.867 128.391C110.039 128.391 108.492 126.914 108.492 125.016C108.492 123.188 109.969 121.641 111.867 121.641C113.766 121.641 115.242 123.117 115.242 125.016Z" fill="#00CB76" fill-opacity="0.28"/>
<path d="M111.867 145.758C113.731 145.758 115.242 144.247 115.242 142.383C115.242 140.519 113.731 139.008 111.867 139.008C110.003 139.008 108.492 140.519 108.492 142.383C108.492 144.247 110.003 145.758 111.867 145.758Z" fill="#00CB76" fill-opacity="0.28"/>
<path d="M111.867 163.125C113.731 163.125 115.242 161.614 115.242 159.75C115.242 157.886 113.731 156.375 111.867 156.375C110.003 156.375 108.492 157.886 108.492 159.75C108.492 161.614 110.003 163.125 111.867 163.125Z" fill="#00CB76" fill-opacity="0.28"/>
<path d="M115.242 177.117C115.242 178.945 113.766 180.492 111.867 180.492C110.039 180.492 108.492 179.016 108.492 177.117C108.492 175.289 109.969 173.742 111.867 173.742C113.766 173.742 115.242 175.289 115.242 177.117Z" fill="#00CB76" fill-opacity="0.28"/>
<path d="M129.937 6.75C131.801 6.75 133.312 5.23897 133.312 3.37501C133.312 1.51105 131.801 0 129.937 0C128.073 0 126.562 1.51105 126.562 3.37501C126.562 5.23897 128.073 6.75 129.937 6.75Z" fill="#00CB76" fill-opacity="0.28"/>
<path d="M133.312 20.7422C133.312 22.5703 131.836 24.1172 129.937 24.1172C128.039 24.1172 126.562 22.6406 126.562 20.7422C126.562 18.9141 128.039 17.3672 129.937 17.3672C131.836 17.3672 133.312 18.9141 133.312 20.7422Z" fill="#00CB76" fill-opacity="0.28"/>
<path d="M129.937 41.4844C131.801 41.4844 133.312 39.9733 133.312 38.1094C133.312 36.2454 131.801 34.7344 129.937 34.7344C128.073 34.7344 126.562 36.2454 126.562 38.1094C126.562 39.9733 128.073 41.4844 129.937 41.4844Z" fill="#00CB76" fill-opacity="0.28"/>
<path d="M129.937 58.8516C131.801 58.8516 133.312 57.3405 133.312 55.4766C133.312 53.6126 131.801 52.1016 129.937 52.1016C128.073 52.1016 126.562 53.6126 126.562 55.4766C126.562 57.3405 128.073 58.8516 129.937 58.8516Z" fill="#00CB76" fill-opacity="0.28"/>
<path d="M133.312 72.9141C133.312 74.7422 131.836 76.2891 129.937 76.2891C128.039 76.2891 126.562 74.8125 126.562 72.9141C126.562 71.086 128.039 69.5391 129.937 69.5391C131.836 69.5391 133.312 71.0156 133.312 72.9141Z" fill="#00CB76" fill-opacity="0.28"/>
<path d="M129.937 93.6563C131.801 93.6563 133.312 92.1452 133.312 90.2812C133.312 88.4173 131.801 86.9062 129.937 86.9062C128.073 86.9062 126.562 88.4173 126.562 90.2812C126.562 92.1452 128.073 93.6563 129.937 93.6563Z" fill="#00CB76" fill-opacity="0.28"/>
<path d="M129.937 111.023C131.801 111.023 133.312 109.512 133.312 107.648C133.312 105.784 131.801 104.273 129.937 104.273C128.073 104.273 126.562 105.784 126.562 107.648C126.562 109.512 128.073 111.023 129.937 111.023Z" fill="#00CB76" fill-opacity="0.28"/>
<path d="M133.312 125.016C133.312 126.844 131.836 128.391 129.937 128.391C128.039 128.391 126.562 126.914 126.562 125.016C126.562 123.188 128.039 121.641 129.937 121.641C131.836 121.641 133.312 123.117 133.312 125.016Z" fill="#00CB76" fill-opacity="0.28"/>
<path d="M129.937 145.758C131.801 145.758 133.312 144.247 133.312 142.383C133.312 140.519 131.801 139.008 129.937 139.008C128.073 139.008 126.562 140.519 126.562 142.383C126.562 144.247 128.073 145.758 129.937 145.758Z" fill="#00CB76" fill-opacity="0.28"/>
<path d="M129.937 163.125C131.801 163.125 133.312 161.614 133.312 159.75C133.312 157.886 131.801 156.375 129.937 156.375C128.073 156.375 126.562 157.886 126.562 159.75C126.562 161.614 128.073 163.125 129.937 163.125Z" fill="#00CB76" fill-opacity="0.28"/>
<path d="M133.312 177.117C133.312 178.945 131.836 180.492 129.937 180.492C128.039 180.492 126.562 179.016 126.562 177.117C126.562 175.289 128.039 173.742 129.937 173.742C131.836 173.742 133.312 175.289 133.312 177.117Z" fill="#00CB76" fill-opacity="0.28"/>
<path d="M151.383 3.37501C151.383 5.20314 149.906 6.75 148.008 6.75C146.18 6.75 144.633 5.27345 144.633 3.37501C144.633 1.54689 146.109 0 148.008 0C149.906 0 151.383 1.54689 151.383 3.37501Z" fill="#00CB76" fill-opacity="0.28"/>
<path d="M151.383 20.7422C151.383 22.5703 149.906 24.1172 148.008 24.1172C146.18 24.1172 144.633 22.6406 144.633 20.7422C144.633 18.9141 146.109 17.3672 148.008 17.3672C149.906 17.3672 151.383 18.9141 151.383 20.7422Z" fill="#00CB76" fill-opacity="0.28"/>
<path d="M151.383 38.1094C151.383 39.9375 149.906 41.4844 148.008 41.4844C146.18 41.4844 144.633 40.0078 144.633 38.1094C144.633 36.2813 146.109 34.7344 148.008 34.7344C149.906 34.7344 151.383 36.2813 151.383 38.1094Z" fill="#00CB76" fill-opacity="0.28"/>
<path d="M151.383 55.4766C151.383 57.3047 149.906 58.8516 148.008 58.8516C146.18 58.8516 144.633 57.375 144.633 55.4766C144.633 53.6484 146.109 52.1016 148.008 52.1016C149.906 52.1016 151.383 53.6484 151.383 55.4766Z" fill="#00CB76" fill-opacity="0.28"/>
<path d="M151.383 72.9141C151.383 74.7422 149.906 76.2891 148.008 76.2891C146.18 76.2891 144.633 74.8125 144.633 72.9141C144.633 71.086 146.109 69.5391 148.008 69.5391C149.906 69.5391 151.383 71.0156 151.383 72.9141Z" fill="#00CB76" fill-opacity="0.28"/>
<path d="M151.383 90.2812C151.383 92.1094 149.906 93.6563 148.008 93.6563C146.18 93.6563 144.633 92.1797 144.633 90.2812C144.633 88.4531 146.109 86.9062 148.008 86.9062C149.906 86.9062 151.383 88.3828 151.383 90.2812Z" fill="#00CB76" fill-opacity="0.28"/>
<path d="M151.383 107.648C151.383 109.477 149.906 111.023 148.008 111.023C146.18 111.023 144.633 109.547 144.633 107.648C144.633 105.82 146.109 104.273 148.008 104.273C149.906 104.273 151.383 105.75 151.383 107.648Z" fill="#00CB76" fill-opacity="0.28"/>
<path d="M151.383 125.016C151.383 126.844 149.906 128.391 148.008 128.391C146.18 128.391 144.633 126.914 144.633 125.016C144.633 123.188 146.109 121.641 148.008 121.641C149.906 121.641 151.383 123.117 151.383 125.016Z" fill="#00CB76" fill-opacity="0.28"/>
<path d="M151.383 142.383C151.383 144.211 149.906 145.758 148.008 145.758C146.18 145.758 144.633 144.281 144.633 142.383C144.633 140.555 146.109 139.008 148.008 139.008C149.906 139.008 151.383 140.555 151.383 142.383Z" fill="#00CB76" fill-opacity="0.28"/>
<path d="M151.383 159.75C151.383 161.578 149.906 163.125 148.008 163.125C146.18 163.125 144.633 161.648 144.633 159.75C144.633 157.922 146.109 156.375 148.008 156.375C149.906 156.375 151.383 157.922 151.383 159.75Z" fill="#00CB76" fill-opacity="0.28"/>
<path d="M151.383 177.117C151.383 178.945 149.906 180.492 148.008 180.492C146.18 180.492 144.633 179.016 144.633 177.117C144.633 175.289 146.109 173.742 148.008 173.742C149.906 173.742 151.383 175.289 151.383 177.117Z" fill="#00CB76" fill-opacity="0.28"/>
<path d="M166.148 6.75C168.012 6.75 169.523 5.23897 169.523 3.37501C169.523 1.51105 168.012 0 166.148 0C164.284 0 162.773 1.51105 162.773 3.37501C162.773 5.23897 164.284 6.75 166.148 6.75Z" fill="#00CB76" fill-opacity="0.28"/>
<path d="M169.523 20.7422C169.523 22.5703 168.047 24.1172 166.148 24.1172C164.32 24.1172 162.773 22.6406 162.773 20.7422C162.773 18.9141 164.25 17.3672 166.148 17.3672C167.977 17.3672 169.523 18.9141 169.523 20.7422Z" fill="#00CB76" fill-opacity="0.28"/>
<path d="M166.148 41.4844C168.012 41.4844 169.523 39.9733 169.523 38.1094C169.523 36.2454 168.012 34.7344 166.148 34.7344C164.284 34.7344 162.773 36.2454 162.773 38.1094C162.773 39.9733 164.284 41.4844 166.148 41.4844Z" fill="#00CB76" fill-opacity="0.28"/>
<path d="M166.148 58.8516C168.012 58.8516 169.523 57.3405 169.523 55.4766C169.523 53.6126 168.012 52.1016 166.148 52.1016C164.284 52.1016 162.773 53.6126 162.773 55.4766C162.773 57.3405 164.284 58.8516 166.148 58.8516Z" fill="#00CB76" fill-opacity="0.28"/>
<path d="M169.523 72.9141C169.523 74.7422 168.047 76.2891 166.148 76.2891C164.32 76.2891 162.773 74.8125 162.773 72.9141C162.773 71.086 164.25 69.5391 166.148 69.5391C167.977 69.5391 169.523 71.0156 169.523 72.9141Z" fill="#00CB76" fill-opacity="0.28"/>
<path d="M166.148 93.6563C168.012 93.6563 169.523 92.1452 169.523 90.2812C169.523 88.4173 168.012 86.9062 166.148 86.9062C164.284 86.9062 162.773 88.4173 162.773 90.2812C162.773 92.1452 164.284 93.6563 166.148 93.6563Z" fill="#00CB76" fill-opacity="0.28"/>
<path d="M166.148 111.023C168.012 111.023 169.523 109.512 169.523 107.648C169.523 105.784 168.012 104.273 166.148 104.273C164.284 104.273 162.773 105.784 162.773 107.648C162.773 109.512 164.284 111.023 166.148 111.023Z" fill="#00CB76" fill-opacity="0.28"/>
<path d="M169.523 125.016C169.523 126.844 168.047 128.391 166.148 128.391C164.32 128.391 162.773 126.914 162.773 125.016C162.773 123.188 164.25 121.641 166.148 121.641C167.977 121.641 169.523 123.117 169.523 125.016Z" fill="#00CB76" fill-opacity="0.28"/>
<path d="M166.148 145.758C168.012 145.758 169.523 144.247 169.523 142.383C169.523 140.519 168.012 139.008 166.148 139.008C164.284 139.008 162.773 140.519 162.773 142.383C162.773 144.247 164.284 145.758 166.148 145.758Z" fill="#00CB76" fill-opacity="0.28"/>
<path d="M166.148 163.125C168.012 163.125 169.523 161.614 169.523 159.75C169.523 157.886 168.012 156.375 166.148 156.375C164.284 156.375 162.773 157.886 162.773 159.75C162.773 161.614 164.284 163.125 166.148 163.125Z" fill="#00CB76" fill-opacity="0.28"/>
<path d="M169.523 177.117C169.523 178.945 168.047 180.492 166.148 180.492C164.32 180.492 162.773 179.016 162.773 177.117C162.773 175.289 164.25 173.742 166.148 173.742C167.977 173.742 169.523 175.289 169.523 177.117Z" fill="#00CB76" fill-opacity="0.28"/>
<path d="M184.219 6.75C186.083 6.75 187.594 5.23897 187.594 3.37501C187.594 1.51105 186.083 0 184.219 0C182.355 0 180.844 1.51105 180.844 3.37501C180.844 5.23897 182.355 6.75 184.219 6.75Z" fill="#00CB76" fill-opacity="0.28"/>
<path d="M187.594 20.7422C187.594 22.5703 186.117 24.1172 184.219 24.1172C182.32 24.1172 180.844 22.6406 180.844 20.7422C180.844 18.9141 182.32 17.3672 184.219 17.3672C186.117 17.3672 187.594 18.9141 187.594 20.7422Z" fill="#00CB76" fill-opacity="0.28"/>
<path d="M184.219 41.4844C186.083 41.4844 187.594 39.9733 187.594 38.1094C187.594 36.2454 186.083 34.7344 184.219 34.7344C182.355 34.7344 180.844 36.2454 180.844 38.1094C180.844 39.9733 182.355 41.4844 184.219 41.4844Z" fill="#00CB76" fill-opacity="0.28"/>
<path d="M184.219 58.8516C186.083 58.8516 187.594 57.3405 187.594 55.4766C187.594 53.6126 186.083 52.1016 184.219 52.1016C182.355 52.1016 180.844 53.6126 180.844 55.4766C180.844 57.3405 182.355 58.8516 184.219 58.8516Z" fill="#00CB76" fill-opacity="0.28"/>
<path d="M187.594 72.9141C187.594 74.7422 186.117 76.2891 184.219 76.2891C182.32 76.2891 180.844 74.8125 180.844 72.9141C180.844 71.086 182.32 69.5391 184.219 69.5391C186.117 69.5391 187.594 71.0156 187.594 72.9141Z" fill="#00CB76" fill-opacity="0.28"/>
<path d="M184.219 93.6563C186.083 93.6563 187.594 92.1452 187.594 90.2812C187.594 88.4173 186.083 86.9062 184.219 86.9062C182.355 86.9062 180.844 88.4173 180.844 90.2812C180.844 92.1452 182.355 93.6563 184.219 93.6563Z" fill="#00CB76" fill-opacity="0.28"/>
<path d="M184.219 111.023C186.083 111.023 187.594 109.512 187.594 107.648C187.594 105.784 186.083 104.273 184.219 104.273C182.355 104.273 180.844 105.784 180.844 107.648C180.844 109.512 182.355 111.023 184.219 111.023Z" fill="#00CB76" fill-opacity="0.28"/>
<path d="M187.594 125.016C187.594 126.844 186.117 128.391 184.219 128.391C182.32 128.391 180.844 126.914 180.844 125.016C180.844 123.188 182.32 121.641 184.219 121.641C186.117 121.641 187.594 123.117 187.594 125.016Z" fill="#00CB76" fill-opacity="0.28"/>
<path d="M184.219 145.758C186.083 145.758 187.594 144.247 187.594 142.383C187.594 140.519 186.083 139.008 184.219 139.008C182.355 139.008 180.844 140.519 180.844 142.383C180.844 144.247 182.355 145.758 184.219 145.758Z" fill="#00CB76" fill-opacity="0.28"/>
<path d="M184.219 163.125C186.083 163.125 187.594 161.614 187.594 159.75C187.594 157.886 186.083 156.375 184.219 156.375C182.355 156.375 180.844 157.886 180.844 159.75C180.844 161.614 182.355 163.125 184.219 163.125Z" fill="#00CB76" fill-opacity="0.28"/>
<path d="M187.594 177.117C187.594 178.945 186.117 180.492 184.219 180.492C182.32 180.492 180.844 179.016 180.844 177.117C180.844 175.289 182.32 173.742 184.219 173.742C186.117 173.742 187.594 175.289 187.594 177.117Z" fill="#00CB76" fill-opacity="0.28"/>
<path d="M205.664 3.37501C205.664 5.20314 204.187 6.75 202.289 6.75C200.461 6.75 198.914 5.27345 198.914 3.37501C198.914 1.54689 200.391 0 202.289 0C204.187 0 205.664 1.54689 205.664 3.37501Z" fill="#00CB76" fill-opacity="0.28"/>
<path d="M205.664 20.7422C205.664 22.5703 204.187 24.1172 202.289 24.1172C200.461 24.1172 198.914 22.6406 198.914 20.7422C198.914 18.9141 200.391 17.3672 202.289 17.3672C204.187 17.3672 205.664 18.9141 205.664 20.7422Z" fill="#00CB76" fill-opacity="0.28"/>
<path d="M205.664 38.1094C205.664 39.9375 204.187 41.4844 202.289 41.4844C200.461 41.4844 198.914 40.0078 198.914 38.1094C198.914 36.2813 200.391 34.7344 202.289 34.7344C204.187 34.7344 205.664 36.2813 205.664 38.1094Z" fill="#00CB76" fill-opacity="0.28"/>
<path d="M205.664 55.4766C205.664 57.3047 204.187 58.8516 202.289 58.8516C200.461 58.8516 198.914 57.375 198.914 55.4766C198.914 53.6484 200.391 52.1016 202.289 52.1016C204.187 52.1016 205.664 53.6484 205.664 55.4766Z" fill="#00CB76" fill-opacity="0.28"/>
<path d="M205.664 72.9141C205.664 74.7422 204.187 76.2891 202.289 76.2891C200.461 76.2891 198.914 74.8125 198.914 72.9141C198.914 71.086 200.391 69.5391 202.289 69.5391C204.187 69.5391 205.664 71.0156 205.664 72.9141Z" fill="#00CB76" fill-opacity="0.28"/>
<path d="M205.664 90.2812C205.664 92.1094 204.187 93.6563 202.289 93.6563C200.461 93.6563 198.914 92.1797 198.914 90.2812C198.914 88.4531 200.391 86.9062 202.289 86.9062C204.187 86.9062 205.664 88.3828 205.664 90.2812Z" fill="#00CB76" fill-opacity="0.28"/>
<path d="M205.664 107.648C205.664 109.477 204.187 111.023 202.289 111.023C200.461 111.023 198.914 109.547 198.914 107.648C198.914 105.82 200.391 104.273 202.289 104.273C204.187 104.273 205.664 105.75 205.664 107.648Z" fill="#00CB76" fill-opacity="0.28"/>
<path d="M205.664 125.016C205.664 126.844 204.187 128.391 202.289 128.391C200.461 128.391 198.914 126.914 198.914 125.016C198.914 123.188 200.391 121.641 202.289 121.641C204.187 121.641 205.664 123.117 205.664 125.016Z" fill="#00CB76" fill-opacity="0.28"/>
<path d="M205.664 142.383C205.664 144.211 204.187 145.758 202.289 145.758C200.461 145.758 198.914 144.281 198.914 142.383C198.914 140.555 200.391 139.008 202.289 139.008C204.187 139.008 205.664 140.555 205.664 142.383Z" fill="#00CB76" fill-opacity="0.28"/>
<path d="M205.664 159.75C205.664 161.578 204.187 163.125 202.289 163.125C200.461 163.125 198.914 161.648 198.914 159.75C198.914 157.922 200.391 156.375 202.289 156.375C204.187 156.375 205.664 157.922 205.664 159.75Z" fill="#00CB76" fill-opacity="0.28"/>
<path d="M205.664 177.117C205.664 178.945 204.187 180.492 202.289 180.492C200.461 180.492 198.914 179.016 198.914 177.117C198.914 175.289 200.391 173.742 202.289 173.742C204.187 173.742 205.664 175.289 205.664 177.117Z" fill="#00CB76" fill-opacity="0.28"/>
<path d="M220.359 6.75C222.223 6.75 223.734 5.23897 223.734 3.37501C223.734 1.51105 222.223 0 220.359 0C218.495 0 216.984 1.51105 216.984 3.37501C216.984 5.23897 218.495 6.75 220.359 6.75Z" fill="#00CB76" fill-opacity="0.28"/>
<path d="M223.734 20.7422C223.734 22.5703 222.258 24.1172 220.359 24.1172C218.461 24.1172 216.984 22.6406 216.984 20.7422C216.984 18.9141 218.461 17.3672 220.359 17.3672C222.258 17.3672 223.734 18.9141 223.734 20.7422Z" fill="#00CB76" fill-opacity="0.28"/>
<path d="M220.359 41.4844C222.223 41.4844 223.734 39.9733 223.734 38.1094C223.734 36.2454 222.223 34.7344 220.359 34.7344C218.495 34.7344 216.984 36.2454 216.984 38.1094C216.984 39.9733 218.495 41.4844 220.359 41.4844Z" fill="#00CB76" fill-opacity="0.28"/>
<path d="M220.359 58.8516C222.223 58.8516 223.734 57.3405 223.734 55.4766C223.734 53.6126 222.223 52.1016 220.359 52.1016C218.495 52.1016 216.984 53.6126 216.984 55.4766C216.984 57.3405 218.495 58.8516 220.359 58.8516Z" fill="#00CB76" fill-opacity="0.28"/>
<path d="M223.734 72.9141C223.734 74.7422 222.258 76.2891 220.359 76.2891C218.461 76.2891 216.984 74.8125 216.984 72.9141C216.984 71.086 218.461 69.5391 220.359 69.5391C222.258 69.5391 223.734 71.0156 223.734 72.9141Z" fill="#00CB76" fill-opacity="0.28"/>
<path d="M220.359 93.6563C222.223 93.6563 223.734 92.1452 223.734 90.2812C223.734 88.4173 222.223 86.9062 220.359 86.9062C218.495 86.9062 216.984 88.4173 216.984 90.2812C216.984 92.1452 218.495 93.6563 220.359 93.6563Z" fill="#00CB76" fill-opacity="0.28"/>
<path d="M220.359 111.023C222.223 111.023 223.734 109.512 223.734 107.648C223.734 105.784 222.223 104.273 220.359 104.273C218.495 104.273 216.984 105.784 216.984 107.648C216.984 109.512 218.495 111.023 220.359 111.023Z" fill="#00CB76" fill-opacity="0.28"/>
<path d="M223.734 125.016C223.734 126.844 222.258 128.391 220.359 128.391C218.461 128.391 216.984 126.914 216.984 125.016C216.984 123.188 218.461 121.641 220.359 121.641C222.258 121.641 223.734 123.117 223.734 125.016Z" fill="#00CB76" fill-opacity="0.28"/>
<path d="M220.359 145.758C222.223 145.758 223.734 144.247 223.734 142.383C223.734 140.519 222.223 139.008 220.359 139.008C218.495 139.008 216.984 140.519 216.984 142.383C216.984 144.247 218.495 145.758 220.359 145.758Z" fill="#00CB76" fill-opacity="0.28"/>
<path d="M220.359 163.125C222.223 163.125 223.734 161.614 223.734 159.75C223.734 157.886 222.223 156.375 220.359 156.375C218.495 156.375 216.984 157.886 216.984 159.75C216.984 161.614 218.495 163.125 220.359 163.125Z" fill="#00CB76" fill-opacity="0.28"/>
<path d="M223.734 177.117C223.734 178.945 222.258 180.492 220.359 180.492C218.461 180.492 216.984 179.016 216.984 177.117C216.984 175.289 218.461 173.742 220.359 173.742C222.258 173.742 223.734 175.289 223.734 177.117Z" fill="#00CB76" fill-opacity="0.28"/>
<path d="M238.5 6.75C240.364 6.75 241.875 5.23897 241.875 3.37501C241.875 1.51105 240.364 0 238.5 0C236.636 0 235.125 1.51105 235.125 3.37501C235.125 5.23897 236.636 6.75 238.5 6.75Z" fill="#00CB76" fill-opacity="0.28"/>
<path d="M241.875 20.7422C241.875 22.5703 240.398 24.1172 238.5 24.1172C236.602 24.1172 235.125 22.6406 235.125 20.7422C235.125 18.9141 236.602 17.3672 238.5 17.3672C240.398 17.3672 241.875 18.9141 241.875 20.7422Z" fill="#00CB76" fill-opacity="0.28"/>
<path d="M238.5 41.4844C240.364 41.4844 241.875 39.9733 241.875 38.1094C241.875 36.2454 240.364 34.7344 238.5 34.7344C236.636 34.7344 235.125 36.2454 235.125 38.1094C235.125 39.9733 236.636 41.4844 238.5 41.4844Z" fill="#00CB76" fill-opacity="0.28"/>
<path d="M238.5 58.8516C240.364 58.8516 241.875 57.3405 241.875 55.4766C241.875 53.6126 240.364 52.1016 238.5 52.1016C236.636 52.1016 235.125 53.6126 235.125 55.4766C235.125 57.3405 236.636 58.8516 238.5 58.8516Z" fill="#00CB76" fill-opacity="0.28"/>
<path d="M241.875 72.9141C241.875 74.7422 240.398 76.2891 238.5 76.2891C236.602 76.2891 235.125 74.8125 235.125 72.9141C235.125 71.086 236.602 69.5391 238.5 69.5391C240.398 69.5391 241.875 71.0156 241.875 72.9141Z" fill="#00CB76" fill-opacity="0.28"/>
<path d="M238.5 93.6563C240.364 93.6563 241.875 92.1452 241.875 90.2812C241.875 88.4173 240.364 86.9062 238.5 86.9062C236.636 86.9062 235.125 88.4173 235.125 90.2812C235.125 92.1452 236.636 93.6563 238.5 93.6563Z" fill="#00CB76" fill-opacity="0.28"/>
<path d="M238.5 111.023C240.364 111.023 241.875 109.512 241.875 107.648C241.875 105.784 240.364 104.273 238.5 104.273C236.636 104.273 235.125 105.784 235.125 107.648C235.125 109.512 236.636 111.023 238.5 111.023Z" fill="#00CB76" fill-opacity="0.28"/>
<path d="M241.875 125.016C241.875 126.844 240.398 128.391 238.5 128.391C236.602 128.391 235.125 126.914 235.125 125.016C235.125 123.188 236.602 121.641 238.5 121.641C240.398 121.641 241.875 123.117 241.875 125.016Z" fill="#00CB76" fill-opacity="0.28"/>
<path d="M238.5 145.758C240.364 145.758 241.875 144.247 241.875 142.383C241.875 140.519 240.364 139.008 238.5 139.008C236.636 139.008 235.125 140.519 235.125 142.383C235.125 144.247 236.636 145.758 238.5 145.758Z" fill="#00CB76" fill-opacity="0.28"/>
<path d="M238.5 163.125C240.364 163.125 241.875 161.614 241.875 159.75C241.875 157.886 240.364 156.375 238.5 156.375C236.636 156.375 235.125 157.886 235.125 159.75C235.125 161.614 236.636 163.125 238.5 163.125Z" fill="#00CB76" fill-opacity="0.28"/>
<path d="M241.875 177.117C241.875 178.945 240.398 180.492 238.5 180.492C236.602 180.492 235.125 179.016 235.125 177.117C235.125 175.289 236.602 173.742 238.5 173.742C240.398 173.742 241.875 175.289 241.875 177.117Z" fill="#00CB76" fill-opacity="0.28"/>
<path d="M259.945 3.37501C259.945 5.20314 258.469 6.75 256.57 6.75C254.742 6.75 253.195 5.27345 253.195 3.37501C253.195 1.54689 254.672 0 256.57 0C258.398 0 259.945 1.54689 259.945 3.37501Z" fill="#00CB76" fill-opacity="0.28"/>
<path d="M259.945 20.7422C259.945 22.5703 258.469 24.1172 256.57 24.1172C254.742 24.1172 253.195 22.6406 253.195 20.7422C253.195 18.9141 254.672 17.3672 256.57 17.3672C258.398 17.3672 259.945 18.9141 259.945 20.7422Z" fill="#00CB76" fill-opacity="0.28"/>
<path d="M259.945 38.1094C259.945 39.9375 258.469 41.4844 256.57 41.4844C254.742 41.4844 253.195 40.0078 253.195 38.1094C253.195 36.2813 254.672 34.7344 256.57 34.7344C258.398 34.7344 259.945 36.2813 259.945 38.1094Z" fill="#00CB76" fill-opacity="0.28"/>
<path d="M259.945 55.4766C259.945 57.3047 258.469 58.8516 256.57 58.8516C254.742 58.8516 253.195 57.375 253.195 55.4766C253.195 53.6484 254.672 52.1016 256.57 52.1016C258.398 52.1016 259.945 53.6484 259.945 55.4766Z" fill="#00CB76" fill-opacity="0.28"/>
<path d="M259.945 72.9141C259.945 74.7422 258.469 76.2891 256.57 76.2891C254.742 76.2891 253.195 74.8125 253.195 72.9141C253.195 71.086 254.672 69.5391 256.57 69.5391C258.398 69.5391 259.945 71.0156 259.945 72.9141Z" fill="#00CB76" fill-opacity="0.28"/>
<path d="M259.945 90.2812C259.945 92.1094 258.469 93.6563 256.57 93.6563C254.742 93.6563 253.195 92.1797 253.195 90.2812C253.195 88.4531 254.672 86.9062 256.57 86.9062C258.398 86.9062 259.945 88.3828 259.945 90.2812Z" fill="#00CB76" fill-opacity="0.28"/>
<path d="M259.945 107.648C259.945 109.477 258.469 111.023 256.57 111.023C254.742 111.023 253.195 109.547 253.195 107.648C253.195 105.82 254.672 104.273 256.57 104.273C258.398 104.273 259.945 105.75 259.945 107.648Z" fill="#00CB76" fill-opacity="0.28"/>
<path d="M259.945 125.016C259.945 126.844 258.469 128.391 256.57 128.391C254.742 128.391 253.195 126.914 253.195 125.016C253.195 123.188 254.672 121.641 256.57 121.641C258.398 121.641 259.945 123.117 259.945 125.016Z" fill="#00CB76" fill-opacity="0.28"/>
<path d="M259.945 142.383C259.945 144.211 258.469 145.758 256.57 145.758C254.742 145.758 253.195 144.281 253.195 142.383C253.195 140.555 254.672 139.008 256.57 139.008C258.398 139.008 259.945 140.555 259.945 142.383Z" fill="#00CB76" fill-opacity="0.28"/>
<path d="M259.945 159.75C259.945 161.578 258.469 163.125 256.57 163.125C254.742 163.125 253.195 161.648 253.195 159.75C253.195 157.922 254.672 156.375 256.57 156.375C258.398 156.375 259.945 157.922 259.945 159.75Z" fill="#00CB76" fill-opacity="0.28"/>
<path d="M259.945 177.117C259.945 178.945 258.469 180.492 256.57 180.492C254.742 180.492 253.195 179.016 253.195 177.117C253.195 175.289 254.672 173.742 256.57 173.742C258.398 173.742 259.945 175.289 259.945 177.117Z" fill="#00CB76" fill-opacity="0.28"/>
<path d="M274.641 6.75C276.505 6.75 278.016 5.23897 278.016 3.37501C278.016 1.51105 276.505 0 274.641 0C272.777 0 271.266 1.51105 271.266 3.37501C271.266 5.23897 272.777 6.75 274.641 6.75Z" fill="#00CB76" fill-opacity="0.28"/>
<path d="M278.016 20.7422C278.016 22.5703 276.539 24.1172 274.641 24.1172C272.813 24.1172 271.266 22.6406 271.266 20.7422C271.266 18.9141 272.742 17.3672 274.641 17.3672C276.539 17.3672 278.016 18.9141 278.016 20.7422Z" fill="#00CB76" fill-opacity="0.28"/>
<path d="M274.641 41.4844C276.505 41.4844 278.016 39.9733 278.016 38.1094C278.016 36.2454 276.505 34.7344 274.641 34.7344C272.777 34.7344 271.266 36.2454 271.266 38.1094C271.266 39.9733 272.777 41.4844 274.641 41.4844Z" fill="#00CB76" fill-opacity="0.28"/>
<path d="M274.641 58.8516C276.505 58.8516 278.016 57.3405 278.016 55.4766C278.016 53.6126 276.505 52.1016 274.641 52.1016C272.777 52.1016 271.266 53.6126 271.266 55.4766C271.266 57.3405 272.777 58.8516 274.641 58.8516Z" fill="#00CB76" fill-opacity="0.28"/>
<path d="M278.016 72.9141C278.016 74.7422 276.539 76.2891 274.641 76.2891C272.813 76.2891 271.266 74.8125 271.266 72.9141C271.266 71.086 272.742 69.5391 274.641 69.5391C276.539 69.5391 278.016 71.0156 278.016 72.9141Z" fill="#00CB76" fill-opacity="0.28"/>
<path d="M274.641 93.6563C276.505 93.6563 278.016 92.1452 278.016 90.2812C278.016 88.4173 276.505 86.9062 274.641 86.9062C272.777 86.9062 271.266 88.4173 271.266 90.2812C271.266 92.1452 272.777 93.6563 274.641 93.6563Z" fill="#00CB76" fill-opacity="0.28"/>
<path d="M274.641 111.023C276.505 111.023 278.016 109.512 278.016 107.648C278.016 105.784 276.505 104.273 274.641 104.273C272.777 104.273 271.266 105.784 271.266 107.648C271.266 109.512 272.777 111.023 274.641 111.023Z" fill="#00CB76" fill-opacity="0.28"/>
<path d="M278.016 125.016C278.016 126.844 276.539 128.391 274.641 128.391C272.813 128.391 271.266 126.914 271.266 125.016C271.266 123.188 272.742 121.641 274.641 121.641C276.539 121.641 278.016 123.117 278.016 125.016Z" fill="#00CB76" fill-opacity="0.28"/>
<path d="M274.641 145.758C276.505 145.758 278.016 144.247 278.016 142.383C278.016 140.519 276.505 139.008 274.641 139.008C272.777 139.008 271.266 140.519 271.266 142.383C271.266 144.247 272.777 145.758 274.641 145.758Z" fill="#00CB76" fill-opacity="0.28"/>
<path d="M274.641 163.125C276.505 163.125 278.016 161.614 278.016 159.75C278.016 157.886 276.505 156.375 274.641 156.375C272.777 156.375 271.266 157.886 271.266 159.75C271.266 161.614 272.777 163.125 274.641 163.125Z" fill="#00CB76" fill-opacity="0.28"/>
<path d="M278.016 177.117C278.016 178.945 276.539 180.492 274.641 180.492C272.813 180.492 271.266 179.016 271.266 177.117C271.266 175.289 272.742 173.742 274.641 173.742C276.539 173.742 278.016 175.289 278.016 177.117Z" fill="#00CB76" fill-opacity="0.28"/>
<path d="M292.711 6.75C294.575 6.75 296.086 5.23897 296.086 3.37501C296.086 1.51105 294.575 0 292.711 0C290.847 0 289.336 1.51105 289.336 3.37501C289.336 5.23897 290.847 6.75 292.711 6.75Z" fill="#00CB76" fill-opacity="0.28"/>
<path d="M296.086 20.7422C296.086 22.5703 294.609 24.1172 292.711 24.1172C290.883 24.1172 289.336 22.6406 289.336 20.7422C289.336 18.9141 290.812 17.3672 292.711 17.3672C294.609 17.3672 296.086 18.9141 296.086 20.7422Z" fill="#00CB76" fill-opacity="0.28"/>
<path d="M292.711 41.4844C294.575 41.4844 296.086 39.9733 296.086 38.1094C296.086 36.2454 294.575 34.7344 292.711 34.7344C290.847 34.7344 289.336 36.2454 289.336 38.1094C289.336 39.9733 290.847 41.4844 292.711 41.4844Z" fill="#00CB76" fill-opacity="0.28"/>
<path d="M292.711 58.8516C294.575 58.8516 296.086 57.3405 296.086 55.4766C296.086 53.6126 294.575 52.1016 292.711 52.1016C290.847 52.1016 289.336 53.6126 289.336 55.4766C289.336 57.3405 290.847 58.8516 292.711 58.8516Z" fill="#00CB76" fill-opacity="0.28"/>
<path d="M296.086 72.9141C296.086 74.7422 294.609 76.2891 292.711 76.2891C290.883 76.2891 289.336 74.8125 289.336 72.9141C289.336 71.086 290.812 69.5391 292.711 69.5391C294.609 69.5391 296.086 71.0156 296.086 72.9141Z" fill="#00CB76" fill-opacity="0.28"/>
<path d="M292.711 93.6563C294.575 93.6563 296.086 92.1452 296.086 90.2812C296.086 88.4173 294.575 86.9062 292.711 86.9062C290.847 86.9062 289.336 88.4173 289.336 90.2812C289.336 92.1452 290.847 93.6563 292.711 93.6563Z" fill="#00CB76" fill-opacity="0.28"/>
<path d="M292.711 111.023C294.575 111.023 296.086 109.512 296.086 107.648C296.086 105.784 294.575 104.273 292.711 104.273C290.847 104.273 289.336 105.784 289.336 107.648C289.336 109.512 290.847 111.023 292.711 111.023Z" fill="#00CB76" fill-opacity="0.28"/>
<path d="M296.086 125.016C296.086 126.844 294.609 128.391 292.711 128.391C290.883 128.391 289.336 126.914 289.336 125.016C289.336 123.188 290.812 121.641 292.711 121.641C294.609 121.641 296.086 123.117 296.086 125.016Z" fill="#00CB76" fill-opacity="0.28"/>
<path d="M292.711 145.758C294.575 145.758 296.086 144.247 296.086 142.383C296.086 140.519 294.575 139.008 292.711 139.008C290.847 139.008 289.336 140.519 289.336 142.383C289.336 144.247 290.847 145.758 292.711 145.758Z" fill="#00CB76" fill-opacity="0.28"/>
<path d="M292.711 163.125C294.575 163.125 296.086 161.614 296.086 159.75C296.086 157.886 294.575 156.375 292.711 156.375C290.847 156.375 289.336 157.886 289.336 159.75C289.336 161.614 290.847 163.125 292.711 163.125Z" fill="#00CB76" fill-opacity="0.28"/>
<path d="M296.086 177.117C296.086 178.945 294.609 180.492 292.711 180.492C290.883 180.492 289.336 179.016 289.336 177.117C289.336 175.289 290.812 173.742 292.711 173.742C294.609 173.742 296.086 175.289 296.086 177.117Z" fill="#00CB76" fill-opacity="0.28"/>
<path d="M314.156 3.37501C314.156 5.20314 312.68 6.75 310.781 6.75C308.953 6.75 307.406 5.27345 307.406 3.37501C307.406 1.54689 308.883 0 310.781 0C312.68 0 314.156 1.54689 314.156 3.37501Z" fill="#00CB76" fill-opacity="0.28"/>
<path d="M314.156 20.7422C314.156 22.5703 312.68 24.1172 310.781 24.1172C308.953 24.1172 307.406 22.6406 307.406 20.7422C307.406 18.9141 308.883 17.3672 310.781 17.3672C312.68 17.3672 314.156 18.9141 314.156 20.7422Z" fill="#00CB76" fill-opacity="0.28"/>
<path d="M314.156 38.1094C314.156 39.9375 312.68 41.4844 310.781 41.4844C308.953 41.4844 307.406 40.0078 307.406 38.1094C307.406 36.2813 308.883 34.7344 310.781 34.7344C312.68 34.7344 314.156 36.2813 314.156 38.1094Z" fill="#00CB76" fill-opacity="0.28"/>
<path d="M314.156 55.4766C314.156 57.3047 312.68 58.8516 310.781 58.8516C308.953 58.8516 307.406 57.375 307.406 55.4766C307.406 53.6484 308.883 52.1016 310.781 52.1016C312.68 52.1016 314.156 53.6484 314.156 55.4766Z" fill="#00CB76" fill-opacity="0.28"/>
<path d="M314.156 72.9141C314.156 74.7422 312.68 76.2891 310.781 76.2891C308.953 76.2891 307.406 74.8125 307.406 72.9141C307.406 71.086 308.883 69.5391 310.781 69.5391C312.68 69.5391 314.156 71.0156 314.156 72.9141Z" fill="#00CB76" fill-opacity="0.28"/>
<path d="M314.156 90.2812C314.156 92.1094 312.68 93.6563 310.781 93.6563C308.953 93.6563 307.406 92.1797 307.406 90.2812C307.406 88.4531 308.883 86.9062 310.781 86.9062C312.68 86.9062 314.156 88.3828 314.156 90.2812Z" fill="#00CB76" fill-opacity="0.28"/>
<path d="M314.156 107.648C314.156 109.477 312.68 111.023 310.781 111.023C308.953 111.023 307.406 109.547 307.406 107.648C307.406 105.82 308.883 104.273 310.781 104.273C312.68 104.273 314.156 105.75 314.156 107.648Z" fill="#00CB76" fill-opacity="0.28"/>
<path d="M314.156 125.016C314.156 126.844 312.68 128.391 310.781 128.391C308.953 128.391 307.406 126.914 307.406 125.016C307.406 123.188 308.883 121.641 310.781 121.641C312.68 121.641 314.156 123.117 314.156 125.016Z" fill="#00CB76" fill-opacity="0.28"/>
<path d="M314.156 142.383C314.156 144.211 312.68 145.758 310.781 145.758C308.953 145.758 307.406 144.281 307.406 142.383C307.406 140.555 308.883 139.008 310.781 139.008C312.68 139.008 314.156 140.555 314.156 142.383Z" fill="#00CB76" fill-opacity="0.28"/>
<path d="M314.156 159.75C314.156 161.578 312.68 163.125 310.781 163.125C308.953 163.125 307.406 161.648 307.406 159.75C307.406 157.922 308.883 156.375 310.781 156.375C312.68 156.375 314.156 157.922 314.156 159.75Z" fill="#00CB76" fill-opacity="0.28"/>
<path d="M314.156 177.117C314.156 178.945 312.68 180.492 310.781 180.492C308.953 180.492 307.406 179.016 307.406 177.117C307.406 175.289 308.883 173.742 310.781 173.742C312.68 173.742 314.156 175.289 314.156 177.117Z" fill="#00CB76" fill-opacity="0.28"/>
<path d="M328.922 6.75C330.786 6.75 332.297 5.23897 332.297 3.37501C332.297 1.51105 330.786 0 328.922 0C327.058 0 325.547 1.51105 325.547 3.37501C325.547 5.23897 327.058 6.75 328.922 6.75Z" fill="#00CB76" fill-opacity="0.28"/>
<path d="M332.297 20.7422C332.297 22.5703 330.82 24.1172 328.922 24.1172C327.094 24.1172 325.547 22.6406 325.547 20.7422C325.547 18.9141 327.023 17.3672 328.922 17.3672C330.75 17.3672 332.297 18.9141 332.297 20.7422Z" fill="#00CB76" fill-opacity="0.28"/>
<path d="M328.922 41.4844C330.786 41.4844 332.297 39.9733 332.297 38.1094C332.297 36.2454 330.786 34.7344 328.922 34.7344C327.058 34.7344 325.547 36.2454 325.547 38.1094C325.547 39.9733 327.058 41.4844 328.922 41.4844Z" fill="#00CB76" fill-opacity="0.28"/>
<path d="M328.922 58.8516C330.786 58.8516 332.297 57.3405 332.297 55.4766C332.297 53.6126 330.786 52.1016 328.922 52.1016C327.058 52.1016 325.547 53.6126 325.547 55.4766C325.547 57.3405 327.058 58.8516 328.922 58.8516Z" fill="#00CB76" fill-opacity="0.28"/>
<path d="M332.297 72.9141C332.297 74.7422 330.82 76.2891 328.922 76.2891C327.094 76.2891 325.547 74.8125 325.547 72.9141C325.547 71.086 327.023 69.5391 328.922 69.5391C330.75 69.5391 332.297 71.0156 332.297 72.9141Z" fill="#00CB76" fill-opacity="0.28"/>
<path d="M328.922 93.6563C330.786 93.6563 332.297 92.1452 332.297 90.2812C332.297 88.4173 330.786 86.9062 328.922 86.9062C327.058 86.9062 325.547 88.4173 325.547 90.2812C325.547 92.1452 327.058 93.6563 328.922 93.6563Z" fill="#00CB76" fill-opacity="0.28"/>
<path d="M328.922 111.023C330.786 111.023 332.297 109.512 332.297 107.648C332.297 105.784 330.786 104.273 328.922 104.273C327.058 104.273 325.547 105.784 325.547 107.648C325.547 109.512 327.058 111.023 328.922 111.023Z" fill="#00CB76" fill-opacity="0.28"/>
<path d="M332.297 125.016C332.297 126.844 330.82 128.391 328.922 128.391C327.094 128.391 325.547 126.914 325.547 125.016C325.547 123.188 327.023 121.641 328.922 121.641C330.75 121.641 332.297 123.117 332.297 125.016Z" fill="#00CB76" fill-opacity="0.28"/>
<path d="M328.922 145.758C330.786 145.758 332.297 144.247 332.297 142.383C332.297 140.519 330.786 139.008 328.922 139.008C327.058 139.008 325.547 140.519 325.547 142.383C325.547 144.247 327.058 145.758 328.922 145.758Z" fill="#00CB76" fill-opacity="0.28"/>
<path d="M328.922 163.125C330.786 163.125 332.297 161.614 332.297 159.75C332.297 157.886 330.786 156.375 328.922 156.375C327.058 156.375 325.547 157.886 325.547 159.75C325.547 161.614 327.058 163.125 328.922 163.125Z" fill="#00CB76" fill-opacity="0.28"/>
<path d="M332.297 177.117C332.297 178.945 330.82 180.492 328.922 180.492C327.094 180.492 325.547 179.016 325.547 177.117C325.547 175.289 327.023 173.742 328.922 173.742C330.75 173.742 332.297 175.289 332.297 177.117Z" fill="#00CB76" fill-opacity="0.28"/>
</g>
</svg>
